<svg viewBox="0 0 290.45 290.45" xmlns="http://www.w3.org/2000/svg" xmlns:xlink="http://www.w3.org/1999/xlink" id="Layer_2" overflow="hidden"><defs></defs><g id="Layer_2-2"><g id="Group_7669"><path d="M145.18 0C64.97 0.03-0.03 65.07 0 145.28 0.03 225.49 65.07 290.48 145.28 290.46 225.47 290.43 290.46 225.42 290.46 145.23L290.46 145.23C290.44 65.01 225.4-0.01 145.18 0 145.18 0 145.18 0 145.18 0M280.18 119.02 258.93 122.69C254 97.82 241.05 75.26 222.05 58.47L235.95 41.99C258.81 62.06 274.37 89.15 280.16 119.01M218.31 135.75 218.31 161.76 189.62 161.76 189.62 193.78 158.39 193.78 158.39 99.34 222.18 99.34 222.18 125.89 189.48 125.89 189.48 135.77 218.3 135.77ZM148 7.8C178.5 8.37 207.93 19.12 231.63 38.32L217.72 54.82C197.91 38.89 173.4 29.95 147.99 29.37L147.99 7.8ZM147.58 116.61C149.9 121.55 151.04 126.96 150.92 132.42 150.96 138.19 149.75 143.9 147.38 149.16 145.12 154.2 142.37 159.01 139.18 163.52L117.56 193.8 78.99 193.8 101.28 164.99 101.95 164.19 100.48 164.19C96.41 164.19 92.37 163.49 88.54 162.12 84.74 160.78 81.23 158.71 78.2 156.04 75.11 153.29 72.64 149.93 70.93 146.17 69.03 141.93 68.09 137.33 68.18 132.69 68.06 127.28 69.2 121.91 71.52 117.01 73.66 112.62 76.76 108.77 80.6 105.74 84.54 102.66 89.02 100.35 93.81 98.94 98.92 97.41 104.22 96.64 109.56 96.66 114.89 96.63 120.19 97.37 125.31 98.86 130.08 100.22 134.56 102.46 138.52 105.46 142.37 108.42 145.47 112.23 147.6 116.6M142.35 7.8 142.35 29.37C116.94 29.95 92.43 38.89 72.62 54.82L58.71 38.33C82.41 19.12 111.84 8.37 142.35 7.8M54.4 41.99 68.29 58.47C49.27 75.29 36.3 97.9 31.39 122.81L10.14 119.16C15.92 89.24 31.49 62.09 54.39 41.99M7.65 145.22C7.65 138.36 8.16 131.52 9.18 124.74L30.46 128.4C29.64 133.98 29.23 139.6 29.23 145.24 29.2 164.58 34.04 183.62 43.29 200.61L24.59 211.34C13.45 191.09 7.63 168.34 7.66 145.22M27.4 216.25 46.1 205.49C59.29 227.1 79.18 243.82 102.74 253.11L95.35 273.36C67.03 262.32 43.15 242.25 27.41 216.24M145.18 282.7C130.04 282.7 115 280.2 100.67 275.29L108.07 255.03C132 263.12 157.93 263.17 181.89 255.17L189.21 275.45C175.03 280.25 160.16 282.69 145.19 282.69M194.54 273.55 187.22 253.26C210.84 244.06 230.8 227.39 244.08 205.8L262.75 216.62C246.91 242.6 222.92 262.61 194.53 273.55M246.9 200.9C256.27 183.84 261.17 164.68 261.14 145.22 261.14 139.54 260.72 133.87 259.89 128.25L281.16 124.57C282.19 131.4 282.71 138.31 282.71 145.22 282.74 168.48 276.84 191.37 265.56 211.71L246.9 200.89Z" id="Path_9597" fill="currentColor"/><path d="M109.56 122.67C106.85 122.55 104.22 123.55 102.29 125.45 100.48 127.28 99.49 129.76 99.55 132.34 99.49 134.85 100.49 137.28 102.29 139.03 104.24 140.89 106.87 141.87 109.56 141.75 112.17 141.84 114.7 140.86 116.57 139.03 118.37 137.28 119.36 134.85 119.31 132.34 119.45 127.14 115.34 122.8 110.14 122.67 110.14 122.67 110.13 122.67 110.12 122.67L109.57 122.67" id="Path_9598" fill="currentColor"/></g></g></svg>